<?xml version="1.0" encoding="utf-8"?>
<!-- Generator: Adobe Illustrator 17.0.0, SVG Export Plug-In . SVG Version: 6.00 Build 0)  -->
<!DOCTYPE svg PUBLIC "-//W3C//DTD SVG 1.1//EN" "http://www.w3.org/Graphics/SVG/1.1/DTD/svg11.dtd">
<svg version="1.1" id="Layer_1" xmlns="http://www.w3.org/2000/svg" xmlns:xlink="http://www.w3.org/1999/xlink" x="0px" y="0px"
	 width="1019px" height="174px" viewBox="0 0 1019 174" enable-background="new 0 0 1019 174" xml:space="preserve">
<title>logo</title>
<desc>Created with Sketch.</desc>
<g id="Page-1">
	<g id="Logo" transform="translate(-373.000000, -410.000000)">
		<g id="logo" transform="translate(373.000000, 410.000000)">
			<path id="Shape" d="M0,6.385h167.967V174H0V6.385z M55.989,62.257v55.872h55.989V62.257H55.989z M18.663,25.009v18.624h18.663
				V25.009H18.663z M18.663,80.881v18.624h18.663V80.881H18.663z M18.663,136.752v18.624h18.663v-18.624H18.663z M74.652,25.009
				v18.624h18.663V25.009H74.652z M74.652,136.752v18.624h18.663v-18.624H74.652z M130.641,25.009v18.624h18.663V25.009H130.641z
				 M130.641,80.881v18.624h18.663V80.881H130.641z M130.641,136.752v18.624h18.663v-18.624H130.641z M683.264,147.466
				c-11.232,8.631-25.3,13.764-40.569,13.764c-36.771,0-66.58-29.767-66.58-66.486s29.809-66.486,66.58-66.486
				c15.269,0,29.337,5.132,40.569,13.764v-9.738h29.438v126.311l-29.438,0.003V147.466z M298.088,161.229
				c-17.166,0-28.775-3.245-39.473-11.615c-10.698-8.37-17.062-22.928-17.062-32.404h32.093
				c3.285,10.762,11.155,17.826,25.959,17.826c10.296,0,19.417-4.139,19.417-13.662c0-8.58-7.737-11.236-13.459-12.431
				c-7.002-0.619-16.382-2.175-28.138-4.668c-17.635-3.739-32.731-12.906-33.013-34.996c-0.364-28.589,21.235-41.023,51.063-41.023
				c32.56,0,51.456,16.11,51.456,41.023h-32.702c0-8.552-8.308-15.249-20.237-15.249c-9.652,0-19.482,4.5-19.482,12.332
				c0,8.756,10.65,12.074,20.158,13.182c6.338,0.739,14.871,2.259,25.597,4.56c18.695,3.358,29.408,17.14,29.408,35.075
				C349.671,144.768,331.177,161.229,298.088,161.229z M450.091,158.596V89.932c0-18.767-10.846-31.26-26.485-31.26
				c-15.639,0-26.358,10.608-26.358,31.257v68.664h-29.481V32.282h24.435l1.709,14.181c6.897-11.529,20.71-17.256,35.333-17.256
				c14.313,0,31.078,6.324,38.23,23.746c11.239-16.91,26.518-23.746,42.866-23.746c25.472,0,49.683,13.231,49.683,59.44v69.945
				h-29.553V88.648c0-19.369-8.755-29.976-24.365-29.976c-15.61,0-26.716,13.281-26.716,31.263v68.664L450.091,158.596z
				 M644.36,132.973c21.143,0,38.283-17.116,38.283-38.23s-17.14-38.23-38.283-38.23s-38.283,17.116-38.283,38.23
				S623.216,132.973,644.36,132.973z M763.77,32.282v16.29c9.196-15.373,23.326-19.365,41.178-19.365c0,3.075,0,27.193,0,30.312
				c-16.348,0-34.224,8.344-39.496,22.767v76.307h-31.163V32.282H763.77z M899.99,158.596l-13.697-0.003
				c-32.695,0-47.361-15.236-47.361-50.986V59.519h-21.526V32.282h22.625V0h29.563v32.282h30.396v27.237h-30.396v48.088
				c0,16.397,6.386,22.034,19.413,22.034l10.984,0.003V158.596z M1019,158.596H915.818v-23.808l60.695-75.269l-60.695,0.003v-27.24
				H1019v21.561l-62.312,77.513H1019V158.596z"/>
		</g>
	</g>
</g>
</svg>
