<?xml version="1.0" encoding="utf-8"?>
<!-- Generator: Adobe Illustrator 17.0.0, SVG Export Plug-In . SVG Version: 6.00 Build 0)  -->
<!DOCTYPE svg PUBLIC "-//W3C//DTD SVG 1.1//EN" "http://www.w3.org/Graphics/SVG/1.1/DTD/svg11.dtd">
<svg version="1.1" id="Layer_1" xmlns="http://www.w3.org/2000/svg" xmlns:xlink="http://www.w3.org/1999/xlink" x="0px" y="0px"
	 width="442px" height="414px" viewBox="0 0 442 414" enable-background="new 0 0 442 414" xml:space="preserve">
<title>Group</title>
<desc>Created with Sketch.</desc>
<g id="Page-1">
	<g id="Alternative" transform="translate(-220.000000, -280.000000)">
		<g id="Group" transform="translate(220.000000, 280.000000)">
			<path id="Shape" fill="#FFFFFF" d="M91.736,0h264.088v265.146H91.736V0z M179.765,88.382v88.382h88.029V88.382H179.765z
				 M121.079,29.461v29.461h29.343V29.461H121.079z M121.079,114.897v29.461h29.343v-29.461H121.079z M121.079,206.225v29.461
				h29.343v-29.461H121.079z M206.174,29.461v29.461h29.343V29.461H206.174z M206.174,206.225v29.461h29.343v-29.461H206.174z
				 M297.138,29.461v29.461h29.343V29.461H297.138z M297.138,114.897v29.461h29.343v-29.461H297.138z M297.138,206.225v29.461
				h29.343v-29.461H297.138z"/>
			<path id="Shape_1_" fill="#FFFFFF" d="M251.125,406.137c-6.386,4.931-14.384,7.863-23.064,7.863
				c-20.905,0-37.852-17.005-37.852-37.981s16.947-37.981,37.852-37.981c8.681,0,16.679,2.932,23.064,7.863v-5.563h16.736v72.156
				l-16.736,0.001V406.137z M32.142,414c-9.759,0-16.36-1.854-22.442-6.635S0,394.267,0,388.854h18.246
				c1.868,6.148,6.342,10.183,14.758,10.183c5.854,0,11.039-2.364,11.039-7.804c0-4.901-4.399-6.418-7.652-7.101
				c-3.981-0.354-9.313-1.243-15.997-2.666c-10.026-2.136-18.609-7.372-18.769-19.992c-0.207-16.331,12.073-23.435,29.03-23.435
				c18.511,0,29.254,9.203,29.254,23.435H41.318c0-4.886-4.723-8.711-11.506-8.711c-5.488,0-11.076,2.571-11.076,7.045
				c0,5.002,6.055,6.897,11.46,7.53c3.604,0.422,8.454,1.29,14.553,2.605c10.629,1.918,16.719,9.791,16.719,20.037
				C61.468,404.596,50.954,414,32.142,414z M118.56,412.496v-39.225c0-10.721-6.166-17.858-15.057-17.858
				s-14.985,6.06-14.985,17.856v39.225H71.756v-72.156h13.892l0.972,8.101c3.921-6.586,11.774-9.858,20.088-9.858
				c8.137,0,17.669,3.612,21.735,13.565c6.39-9.66,15.076-13.565,24.37-13.565c14.482,0,28.246,7.558,28.246,33.956v39.957h-16.802
				v-39.957c0-11.064-4.977-17.124-13.852-17.124s-15.189,7.587-15.189,17.859v39.225L118.56,412.496z M229.007,397.858
				c12.021,0,21.765-9.778,21.765-21.839s-9.745-21.839-21.765-21.839c-12.021,0-21.765,9.778-21.765,21.839
				S216.986,397.858,229.007,397.858z M296.895,340.338v9.306c5.228-8.782,13.262-11.062,23.411-11.062c0,1.756,0,15.534,0,17.316
				c-9.294,0-19.457,4.767-22.455,13.006v43.591h-17.717v-72.156h16.761V340.338z M374.34,412.496l-7.787-0.001
				c-18.588,0-26.926-8.704-26.926-29.126v-27.471h-12.238v-15.559h12.863v-18.441h16.807v18.441h17.281v15.559h-17.281v27.471
				c0,9.367,3.63,12.587,11.037,12.587l6.244,0.001V412.496z M442,412.496h-58.662v-13.6l34.507-42.998l-34.507,0.002v-15.561H442
				v12.317l-35.426,44.28H442V412.496z"/>
		</g>
	</g>
</g>
</svg>
