<?xml version="1.0" encoding="utf-8"?>
<!-- Generator: Adobe Illustrator 17.0.0, SVG Export Plug-In . SVG Version: 6.00 Build 0)  -->
<!DOCTYPE svg PUBLIC "-//W3C//DTD SVG 1.1//EN" "http://www.w3.org/Graphics/SVG/1.1/DTD/svg11.dtd">
<svg version="1.1" id="Layer_1" xmlns="http://www.w3.org/2000/svg" xmlns:xlink="http://www.w3.org/1999/xlink" x="0px" y="0px"
	 width="95px" height="541px" viewBox="0 0 95 541" enable-background="new 0 0 95 541" xml:space="preserve">
<title>logo copy</title>
<desc>Created with Sketch.</desc>
<g id="Page-1">
	<g id="Alternative" transform="translate(-1276.000000, -217.000000)">
		
			<g id="logo-copy" transform="translate(1323.000000, 487.500000) rotate(-270.000000) translate(-1323.000000, -487.500000) translate(1053.000000, 440.000000)">
			<path id="Shape" fill="#FFFFFF" d="M0,5.384h89.011v88.824H0V5.384z M29.67,34.992V64.6h29.67V34.992H29.67z M9.89,15.253v9.869
				h9.89v-9.869C19.78,15.253,9.89,15.253,9.89,15.253z M9.89,44.861v9.869h9.89v-9.869H9.89z M9.89,74.469v9.869h9.89v-9.869H9.89z
				 M39.56,15.253v9.869h9.89v-9.869C49.45,15.253,39.56,15.253,39.56,15.253z M39.56,74.469v9.869h9.89v-9.869H39.56z
				 M69.231,15.253v9.869h9.89v-9.869C79.121,15.253,69.231,15.253,69.231,15.253z M69.231,44.861v9.869h9.89v-9.869H69.231z
				 M69.231,74.469v9.869h9.89v-9.869H69.231z M362.083,78.147c-5.952,4.574-13.407,7.294-21.499,7.294
				c-19.486,0-35.283-15.774-35.283-35.233s15.797-35.233,35.283-35.233c8.091,0,15.546,2.72,21.499,7.294v-5.161h15.6v66.936
				l-15.6,0.001V78.147z M157.966,85.44c-9.097,0-15.249-1.72-20.918-6.155s-9.042-12.15-9.042-17.172h17.007
				c1.741,5.703,5.911,9.446,13.756,9.446c5.456,0,10.29-2.193,10.29-7.24c0-4.547-4.1-5.954-7.133-6.588
				c-3.711-0.328-8.681-1.153-14.911-2.474c-9.345-1.981-17.345-6.839-17.494-18.546c-0.193-15.15,11.253-21.739,27.06-21.739
				c17.255,0,27.268,8.537,27.268,21.739h-17.33c0-4.532-4.402-8.081-10.724-8.081c-5.115,0-10.324,2.385-10.324,6.535
				c0,4.64,5.644,6.398,10.682,6.985c3.359,0.391,7.88,1.197,13.565,2.416c9.907,1.78,15.584,9.083,15.584,18.587
				C185.302,76.717,175.501,85.44,157.966,85.44z M238.517,84.045V47.658c0-9.945-5.748-16.566-14.035-16.566
				s-13.968,5.621-13.968,16.564v36.387h-15.623V17.107h12.949l0.906,7.515c3.655-6.11,10.975-9.144,18.724-9.144
				c7.585,0,16.469,3.351,20.259,12.584c5.956-8.961,14.053-12.584,22.716-12.584c13.499,0,26.328,7.011,26.328,31.499v37.066
				h-15.661V46.977c0-10.264-4.639-15.885-12.912-15.885s-14.158,7.038-14.158,16.567v36.387L238.517,84.045z M341.466,70.466
				c11.204,0,20.288-9.07,20.288-20.259s-9.083-20.259-20.288-20.259s-20.288,9.07-20.288,20.259S330.262,70.466,341.466,70.466z
				 M404.746,17.107v8.633c4.873-8.146,12.361-10.262,21.822-10.262c0,1.629,0,14.41,0,16.063c-8.663,0-18.136,4.422-20.93,12.065
				v40.437h-16.514V17.107H404.746z M476.933,84.045l-7.258-0.001c-17.326,0-25.098-8.074-25.098-27.019V31.541H433.17V17.107h11.99
				V0h15.666v17.107h16.108v14.434h-16.108v25.483c0,8.689,3.384,11.676,10.287,11.676l5.821,0.001L476.933,84.045L476.933,84.045z
				 M540,84.045h-54.679V71.428l32.164-39.887l-32.164,0.001V17.107H540v11.426L506.979,69.61H540V84.045z"/>
		</g>
	</g>
</g>
</svg>
