<?xml version="1.0" encoding="utf-8"?>
<!-- Generator: Adobe Illustrator 17.0.0, SVG Export Plug-In . SVG Version: 6.00 Build 0)  -->
<!DOCTYPE svg PUBLIC "-//W3C//DTD SVG 1.1//EN" "http://www.w3.org/Graphics/SVG/1.1/DTD/svg11.dtd">
<svg version="1.1" id="Layer_1" xmlns="http://www.w3.org/2000/svg" xmlns:xlink="http://www.w3.org/1999/xlink" x="0px" y="0px"
	 width="378px" height="378px" viewBox="0 0 378 378" enable-background="new 0 0 378 378" xml:space="preserve">
<title>logo</title>
<desc>Created with Sketch.</desc>
<g id="Page-1">
	<g id="Sign" transform="translate(-693.000000, -307.000000)">
		<g id="logo" transform="translate(693.000000, 307.000000)">
			<path id="Shape" d="M0,0h378v378H0V0z M126,126v126h126V126H126z M42,42v42h42V42H42z M42,168v42h42v-42H42z M42,294v42h42v-42
				H42z M168,42v42h42V42H168z M168,294v42h42v-42H168z M294,42v42h42V42H294z M294,168v42h42v-42H294z M294,294v42h42v-42H294z"/>
		</g>
	</g>
</g>
</svg>
